<svg width="957" height="61" viewBox="0 0 957 61" fill="none" xmlns="http://www.w3.org/2000/svg">
<path d="M16.064 50.756C13.004 50.756 10.034 50.378 7.154 49.622C4.274 48.866 1.934 47.858 0.134 46.598L3.644 38.714C5.336 39.83 7.298 40.73 9.53 41.414C11.762 42.098 13.958 42.44 16.118 42.44C20.222 42.44 22.274 41.414 22.274 39.362C22.274 38.282 21.68 37.49 20.492 36.986C19.34 36.446 17.468 35.888 14.876 35.312C12.032 34.7 9.656 34.052 7.748 33.368C5.84 32.648 4.202 31.514 2.834 29.966C1.466 28.418 0.782 26.33 0.782 23.702C0.782 21.398 1.412 19.328 2.672 17.492C3.932 15.62 5.804 14.144 8.288 13.064C10.808 11.984 13.886 11.444 17.522 11.444C20.006 11.444 22.454 11.732 24.866 12.308C27.278 12.848 29.402 13.658 31.238 14.738L27.944 22.676C24.344 20.732 20.852 19.76 17.468 19.76C15.344 19.76 13.796 20.084 12.824 20.732C11.852 21.344 11.366 22.154 11.366 23.162C11.366 24.17 11.942 24.926 13.094 25.43C14.246 25.934 16.1 26.456 18.656 26.996C21.536 27.608 23.912 28.274 25.784 28.994C27.692 29.678 29.33 30.794 30.698 32.342C32.102 33.854 32.804 35.924 32.804 38.552C32.804 40.82 32.174 42.872 30.914 44.708C29.654 46.544 27.764 48.02 25.244 49.136C22.724 50.216 19.664 50.756 16.064 50.756ZM28.106 0.913998L21.086 9.122H12.23L5.21 0.913998H12.014L16.658 5.018L21.302 0.913998H28.106ZM57.4529 48.812C56.5889 49.352 55.5269 49.766 54.2669 50.054C53.0429 50.342 51.7289 50.486 50.3249 50.486C46.5089 50.486 43.5749 49.55 41.5229 47.678C39.4709 45.806 38.4449 43.016 38.4449 39.308V29.48H34.1789V21.812H38.4449V14.198H48.7049V21.812H55.4009V29.48H48.7049V39.2C48.7049 40.244 48.9749 41.072 49.5149 41.684C50.0909 42.26 50.8469 42.548 51.7829 42.548C52.9709 42.548 54.0149 42.242 54.9149 41.63L57.4529 48.812ZM75.2535 50.486C72.1215 50.486 69.2955 49.838 66.7755 48.542C64.2555 47.246 62.2755 45.446 60.8355 43.142C59.4315 40.838 58.7295 38.228 58.7295 35.312C58.7295 32.432 59.4315 29.84 60.8355 27.536C62.2755 25.232 64.2375 23.45 66.7215 22.19C69.2415 20.894 72.0855 20.246 75.2535 20.246C78.4215 20.246 81.2655 20.894 83.7855 22.19C86.3055 23.45 88.2675 25.232 89.6715 27.536C91.0755 29.804 91.7775 32.396 91.7775 35.312C91.7775 38.228 91.0755 40.838 89.6715 43.142C88.2675 45.446 86.3055 47.246 83.7855 48.542C81.2655 49.838 78.4215 50.486 75.2535 50.486ZM75.2535 42.332C77.0535 42.332 78.5295 41.72 79.6815 40.496C80.8335 39.236 81.4095 37.508 81.4095 35.312C81.4095 33.152 80.8335 31.46 79.6815 30.236C78.5295 29.012 77.0535 28.4 75.2535 28.4C73.4535 28.4 71.9775 29.012 70.8255 30.236C69.6735 31.46 69.0975 33.152 69.0975 35.312C69.0975 37.508 69.6735 39.236 70.8255 40.496C71.9775 41.72 73.4535 42.332 75.2535 42.332ZM143.349 9.932V50H133.575V47.084C131.667 49.352 128.805 50.486 124.989 50.486C122.325 50.486 119.895 49.874 117.699 48.65C115.503 47.39 113.757 45.608 112.461 43.304C111.201 41 110.571 38.336 110.571 35.312C110.571 32.288 111.201 29.642 112.461 27.374C113.757 25.07 115.503 23.306 117.699 22.082C119.895 20.858 122.325 20.246 124.989 20.246C128.481 20.246 131.181 21.254 133.089 23.27V9.932H143.349ZM127.149 42.332C128.913 42.332 130.371 41.72 131.523 40.496C132.675 39.236 133.251 37.508 133.251 35.312C133.251 33.152 132.675 31.46 131.523 30.236C130.407 29.012 128.949 28.4 127.149 28.4C125.349 28.4 123.873 29.012 122.721 30.236C121.569 31.46 120.993 33.152 120.993 35.312C120.993 37.508 121.569 39.236 122.721 40.496C123.873 41.72 125.349 42.332 127.149 42.332ZM164.638 50.486C161.506 50.486 158.68 49.838 156.16 48.542C153.64 47.246 151.66 45.446 150.22 43.142C148.816 40.838 148.114 38.228 148.114 35.312C148.114 32.432 148.816 29.84 150.22 27.536C151.66 25.232 153.622 23.45 156.106 22.19C158.626 20.894 161.47 20.246 164.638 20.246C167.806 20.246 170.65 20.894 173.17 22.19C175.69 23.45 177.652 25.232 179.056 27.536C180.46 29.804 181.162 32.396 181.162 35.312C181.162 38.228 180.46 40.838 179.056 43.142C177.652 45.446 175.69 47.246 173.17 48.542C170.65 49.838 167.806 50.486 164.638 50.486ZM164.638 42.332C166.438 42.332 167.914 41.72 169.066 40.496C170.218 39.236 170.794 37.508 170.794 35.312C170.794 33.152 170.218 31.46 169.066 30.236C167.914 29.012 166.438 28.4 164.638 28.4C162.838 28.4 161.362 29.012 160.21 30.236C159.058 31.46 158.482 33.152 158.482 35.312C158.482 37.508 159.058 39.236 160.21 40.496C161.362 41.72 162.838 42.332 164.638 42.332ZM204.329 20.246C206.993 20.246 209.405 20.858 211.565 22.082C213.761 23.306 215.489 25.07 216.749 27.374C218.045 29.642 218.693 32.288 218.693 35.312C218.693 38.336 218.045 41 216.749 43.304C215.489 45.608 213.761 47.39 211.565 48.65C209.405 49.874 206.993 50.486 204.329 50.486C200.477 50.486 197.597 49.352 195.689 47.084V50H185.915V9.932H196.175V23.27C198.155 21.254 200.873 20.246 204.329 20.246ZM202.169 42.332C203.969 42.332 205.445 41.72 206.597 40.496C207.749 39.236 208.325 37.508 208.325 35.312C208.325 33.152 207.749 31.46 206.597 30.236C205.445 29.012 203.969 28.4 202.169 28.4C200.369 28.4 198.893 29.012 197.741 30.236C196.589 31.46 196.013 33.152 196.013 35.312C196.013 37.508 196.589 39.236 197.741 40.496C198.893 41.72 200.369 42.332 202.169 42.332ZM223.462 20.732H233.722V50H223.462V20.732ZM228.592 17.492C226.72 17.492 225.208 16.97 224.056 15.926C222.904 14.882 222.328 13.586 222.328 12.038C222.328 10.49 222.904 9.194 224.056 8.15C225.208 7.106 226.72 6.584 228.592 6.584C230.464 6.584 231.976 7.088 233.128 8.096C234.28 9.068 234.856 10.328 234.856 11.876C234.856 13.496 234.28 14.846 233.128 15.926C231.976 16.97 230.464 17.492 228.592 17.492ZM271.224 20.732L259.128 50H248.544L236.502 20.732H247.032L254.052 38.606L261.45 20.732H271.224ZM285.348 20.246C290.208 20.246 293.916 21.362 296.472 23.594C299.028 25.79 300.306 29.174 300.306 33.746V50H290.748V46.22C289.272 49.064 286.392 50.486 282.108 50.486C279.84 50.486 277.878 50.09 276.222 49.298C274.566 48.506 273.306 47.444 272.442 46.112C271.614 44.744 271.2 43.196 271.2 41.468C271.2 38.696 272.262 36.554 274.386 35.042C276.51 33.494 279.786 32.72 284.214 32.72H290.046C289.866 29.624 287.796 28.076 283.836 28.076C282.432 28.076 281.01 28.31 279.57 28.778C278.13 29.21 276.906 29.822 275.898 30.614L272.442 23.648C274.062 22.568 276.024 21.74 278.328 21.164C280.668 20.552 283.008 20.246 285.348 20.246ZM284.97 44.006C286.158 44.006 287.202 43.718 288.102 43.142C289.002 42.566 289.65 41.72 290.046 40.604V38.066H285.618C282.63 38.066 281.136 39.056 281.136 41.036C281.136 41.936 281.478 42.656 282.162 43.196C282.846 43.736 283.782 44.006 284.97 44.006ZM317.42 50.486C314.972 50.486 312.56 50.216 310.184 49.676C307.808 49.1 305.9 48.362 304.46 47.462L307.538 40.442C308.87 41.27 310.454 41.936 312.29 42.44C314.126 42.908 315.944 43.142 317.744 43.142C319.4 43.142 320.57 42.98 321.254 42.656C321.974 42.296 322.334 41.792 322.334 41.144C322.334 40.496 321.902 40.046 321.038 39.794C320.21 39.506 318.878 39.236 317.042 38.984C314.702 38.696 312.704 38.318 311.048 37.85C309.428 37.382 308.024 36.518 306.836 35.258C305.648 33.998 305.054 32.234 305.054 29.966C305.054 28.094 305.612 26.438 306.728 24.998C307.844 23.522 309.464 22.37 311.588 21.542C313.748 20.678 316.322 20.246 319.31 20.246C321.434 20.246 323.54 20.462 325.628 20.894C327.716 21.326 329.462 21.938 330.866 22.73L327.788 29.696C325.196 28.256 322.388 27.536 319.364 27.536C317.744 27.536 316.556 27.734 315.8 28.13C315.044 28.49 314.666 28.976 314.666 29.588C314.666 30.272 315.08 30.758 315.908 31.046C316.736 31.298 318.104 31.568 320.012 31.856C322.424 32.216 324.422 32.63 326.006 33.098C327.59 33.566 328.958 34.43 330.11 35.69C331.298 36.914 331.892 38.642 331.892 40.874C331.892 42.71 331.334 44.366 330.218 45.842C329.102 47.282 327.446 48.416 325.25 49.244C323.09 50.072 320.48 50.486 317.42 50.486ZM329.408 9.014L322.388 17.222H313.532L306.512 9.014H313.316L317.96 13.118L322.604 9.014H329.408ZM364.502 20.246C369.362 20.246 373.07 21.362 375.626 23.594C378.182 25.79 379.46 29.174 379.46 33.746V50H369.902V46.22C368.426 49.064 365.546 50.486 361.262 50.486C358.994 50.486 357.032 50.09 355.376 49.298C353.72 48.506 352.46 47.444 351.596 46.112C350.768 44.744 350.354 43.196 350.354 41.468C350.354 38.696 351.416 36.554 353.54 35.042C355.664 33.494 358.94 32.72 363.368 32.72H369.2C369.02 29.624 366.95 28.076 362.99 28.076C361.586 28.076 360.164 28.31 358.724 28.778C357.284 29.21 356.06 29.822 355.052 30.614L351.596 23.648C353.216 22.568 355.178 21.74 357.482 21.164C359.822 20.552 362.162 20.246 364.502 20.246ZM364.124 44.006C365.312 44.006 366.356 43.718 367.256 43.142C368.156 42.566 368.804 41.72 369.2 40.604V38.066H364.772C361.784 38.066 360.29 39.056 360.29 41.036C360.29 41.936 360.632 42.656 361.316 43.196C362 43.736 362.936 44.006 364.124 44.006ZM399.221 39.74L396.197 42.818V50H385.937V9.932H396.197V30.938L406.673 20.732H418.823L406.673 33.26L419.849 50H407.429L399.221 39.74ZM436.326 50.486C433.194 50.486 430.368 49.838 427.848 48.542C425.328 47.246 423.348 45.446 421.908 43.142C420.504 40.838 419.802 38.228 419.802 35.312C419.802 32.432 420.504 29.84 421.908 27.536C423.348 25.232 425.31 23.45 427.794 22.19C430.314 20.894 433.158 20.246 436.326 20.246C439.494 20.246 442.338 20.894 444.858 22.19C447.378 23.45 449.34 25.232 450.744 27.536C452.148 29.804 452.85 32.396 452.85 35.312C452.85 38.228 452.148 40.838 450.744 43.142C449.34 45.446 447.378 47.246 444.858 48.542C442.338 49.838 439.494 50.486 436.326 50.486ZM436.326 42.332C438.126 42.332 439.602 41.72 440.754 40.496C441.906 39.236 442.482 37.508 442.482 35.312C442.482 33.152 441.906 31.46 440.754 30.236C439.602 29.012 438.126 28.4 436.326 28.4C434.526 28.4 433.05 29.012 431.898 30.236C430.746 31.46 430.17 33.152 430.17 35.312C430.17 37.508 430.746 39.236 431.898 40.496C433.05 41.72 434.526 42.332 436.326 42.332ZM504.097 20.732V50H494.323V46.868C493.243 48.056 491.947 48.956 490.435 49.568C488.923 50.18 487.321 50.486 485.629 50.486C481.849 50.486 478.825 49.37 476.557 47.138C474.325 44.906 473.209 41.558 473.209 37.094V20.732H483.469V35.42C483.469 37.616 483.883 39.218 484.711 40.226C485.539 41.234 486.745 41.738 488.329 41.738C489.949 41.738 491.263 41.18 492.271 40.064C493.315 38.912 493.837 37.166 493.837 34.826V20.732H504.097ZM529.12 20.246C531.784 20.246 534.196 20.876 536.356 22.136C538.552 23.36 540.28 25.124 541.54 27.428C542.836 29.696 543.484 32.342 543.484 35.366C543.484 38.39 542.836 41.054 541.54 43.358C540.28 45.626 538.552 47.39 536.356 48.65C534.196 49.874 531.784 50.486 529.12 50.486C525.7 50.486 522.982 49.46 520.966 47.408V60.476H510.706V20.732H520.48V23.648C522.388 21.38 525.268 20.246 529.12 20.246ZM526.96 42.332C528.76 42.332 530.236 41.72 531.388 40.496C532.54 39.236 533.116 37.526 533.116 35.366C533.116 33.206 532.54 31.514 531.388 30.29C530.236 29.03 528.76 28.4 526.96 28.4C525.16 28.4 523.684 29.03 522.532 30.29C521.38 31.514 520.804 33.206 520.804 35.366C520.804 37.526 521.38 39.236 522.532 40.496C523.684 41.72 525.16 42.332 526.96 42.332ZM548.253 20.732H558.513V50H548.253V20.732ZM553.383 17.492C551.511 17.492 549.999 16.97 548.847 15.926C547.695 14.882 547.119 13.586 547.119 12.038C547.119 10.49 547.695 9.194 548.847 8.15C549.999 7.106 551.511 6.584 553.383 6.584C555.255 6.584 556.767 7.088 557.919 8.096C559.071 9.068 559.647 10.328 559.647 11.876C559.647 13.496 559.071 14.846 557.919 15.926C556.767 16.97 555.255 17.492 553.383 17.492ZM575.819 50.486C573.371 50.486 570.959 50.216 568.583 49.676C566.207 49.1 564.299 48.362 562.859 47.462L565.937 40.442C567.269 41.27 568.853 41.936 570.689 42.44C572.525 42.908 574.343 43.142 576.143 43.142C577.799 43.142 578.969 42.98 579.653 42.656C580.373 42.296 580.733 41.792 580.733 41.144C580.733 40.496 580.301 40.046 579.437 39.794C578.609 39.506 577.277 39.236 575.441 38.984C573.101 38.696 571.103 38.318 569.447 37.85C567.827 37.382 566.423 36.518 565.235 35.258C564.047 33.998 563.453 32.234 563.453 29.966C563.453 28.094 564.011 26.438 565.127 24.998C566.243 23.522 567.863 22.37 569.987 21.542C572.147 20.678 574.721 20.246 577.709 20.246C579.833 20.246 581.939 20.462 584.027 20.894C586.115 21.326 587.861 21.938 589.265 22.73L586.187 29.696C583.595 28.256 580.787 27.536 577.763 27.536C576.143 27.536 574.955 27.734 574.199 28.13C573.443 28.49 573.065 28.976 573.065 29.588C573.065 30.272 573.479 30.758 574.307 31.046C575.135 31.298 576.503 31.568 578.411 31.856C580.823 32.216 582.821 32.63 584.405 33.098C585.989 33.566 587.357 34.43 588.509 35.69C589.697 36.914 590.291 38.642 590.291 40.874C590.291 42.71 589.733 44.366 588.617 45.842C587.501 47.282 585.845 48.416 583.649 49.244C581.489 50.072 578.879 50.486 575.819 50.486ZM587.807 9.014L580.787 17.222H571.931L564.911 9.014H571.715L576.359 13.118L581.003 9.014H587.807ZM624.628 35.42C624.628 35.492 624.574 36.338 624.466 37.958H603.19C603.622 39.47 604.45 40.64 605.674 41.468C606.934 42.26 608.5 42.656 610.372 42.656C611.776 42.656 612.982 42.458 613.99 42.062C615.034 41.666 616.078 41.018 617.122 40.118L622.522 45.734C619.678 48.902 615.52 50.486 610.048 50.486C606.628 50.486 603.622 49.838 601.03 48.542C598.438 47.246 596.422 45.446 594.982 43.142C593.578 40.838 592.876 38.228 592.876 35.312C592.876 32.432 593.56 29.858 594.928 27.59C596.332 25.286 598.258 23.486 600.706 22.19C603.154 20.894 605.908 20.246 608.968 20.246C611.884 20.246 614.53 20.858 616.906 22.082C619.282 23.27 621.154 25.016 622.522 27.32C623.926 29.588 624.628 32.288 624.628 35.42ZM609.022 27.536C607.438 27.536 606.106 27.986 605.026 28.886C603.982 29.786 603.316 31.01 603.028 32.558H615.016C614.728 31.01 614.044 29.786 612.964 28.886C611.92 27.986 610.606 27.536 609.022 27.536ZM639.996 50.486C637.548 50.486 635.136 50.216 632.76 49.676C630.384 49.1 628.476 48.362 627.036 47.462L630.114 40.442C631.446 41.27 633.03 41.936 634.866 42.44C636.702 42.908 638.52 43.142 640.32 43.142C641.976 43.142 643.146 42.98 643.83 42.656C644.55 42.296 644.91 41.792 644.91 41.144C644.91 40.496 644.478 40.046 643.614 39.794C642.786 39.506 641.454 39.236 639.618 38.984C637.278 38.696 635.28 38.318 633.624 37.85C632.004 37.382 630.6 36.518 629.412 35.258C628.224 33.998 627.63 32.234 627.63 29.966C627.63 28.094 628.188 26.438 629.304 24.998C630.42 23.522 632.04 22.37 634.164 21.542C636.324 20.678 638.898 20.246 641.886 20.246C644.01 20.246 646.116 20.462 648.204 20.894C650.292 21.326 652.038 21.938 653.442 22.73L650.364 29.696C647.772 28.256 644.964 27.536 641.94 27.536C640.32 27.536 639.132 27.734 638.376 28.13C637.62 28.49 637.242 28.976 637.242 29.588C637.242 30.272 637.656 30.758 638.484 31.046C639.312 31.298 640.68 31.568 642.588 31.856C645 32.216 646.998 32.63 648.582 33.098C650.166 33.566 651.534 34.43 652.686 35.69C653.874 36.914 654.468 38.642 654.468 40.874C654.468 42.71 653.91 44.366 652.794 45.842C651.678 47.282 650.022 48.416 647.826 49.244C645.666 50.072 643.056 50.486 639.996 50.486ZM651.984 9.014L644.964 17.222H636.108L629.088 9.014H635.892L640.536 13.118L645.18 9.014H651.984ZM712.729 20.246C716.329 20.246 719.191 21.326 721.315 23.486C723.475 25.646 724.555 28.904 724.555 33.26V50H714.295V34.934C714.295 32.882 713.899 31.37 713.107 30.398C712.351 29.426 711.271 28.94 709.867 28.94C708.319 28.94 707.077 29.48 706.141 30.56C705.205 31.64 704.737 33.278 704.737 35.474V50H694.477V34.934C694.477 30.938 693.001 28.94 690.049 28.94C688.465 28.94 687.205 29.48 686.269 30.56C685.333 31.64 684.865 33.278 684.865 35.474V50H674.605V20.732H684.379V23.81C685.459 22.622 686.737 21.74 688.213 21.164C689.725 20.552 691.363 20.246 693.127 20.246C695.179 20.246 697.015 20.624 698.635 21.38C700.255 22.136 701.569 23.288 702.577 24.836C703.729 23.36 705.187 22.226 706.951 21.434C708.715 20.642 710.641 20.246 712.729 20.246ZM743.504 20.246C748.364 20.246 752.072 21.362 754.628 23.594C757.184 25.79 758.462 29.174 758.462 33.746V50H748.904V46.22C747.428 49.064 744.548 50.486 740.264 50.486C737.996 50.486 736.034 50.09 734.378 49.298C732.722 48.506 731.462 47.444 730.598 46.112C729.77 44.744 729.356 43.196 729.356 41.468C729.356 38.696 730.418 36.554 732.542 35.042C734.666 33.494 737.942 32.72 742.37 32.72H748.202C748.022 29.624 745.952 28.076 741.992 28.076C740.588 28.076 739.166 28.31 737.726 28.778C736.286 29.21 735.062 29.822 734.054 30.614L730.598 23.648C732.218 22.568 734.18 21.74 736.484 21.164C738.824 20.552 741.164 20.246 743.504 20.246ZM743.126 44.006C744.314 44.006 745.358 43.718 746.258 43.142C747.158 42.566 747.806 41.72 748.202 40.604V38.066H743.774C740.786 38.066 739.292 39.056 739.292 41.036C739.292 41.936 739.634 42.656 740.318 43.196C741.002 43.736 741.938 44.006 743.126 44.006ZM824.949 48.812C824.085 49.352 823.023 49.766 821.763 50.054C820.539 50.342 819.225 50.486 817.821 50.486C814.005 50.486 811.071 49.55 809.019 47.678C806.967 45.806 805.941 43.016 805.941 39.308V29.48H801.675V21.812H805.941V14.198H816.201V21.812H822.897V29.48H816.201V39.2C816.201 40.244 816.471 41.072 817.011 41.684C817.587 42.26 818.343 42.548 819.279 42.548C820.467 42.548 821.511 42.242 822.411 41.63L824.949 48.812ZM859.685 20.732V50H849.911V46.868C848.831 48.056 847.535 48.956 846.023 49.568C844.511 50.18 842.909 50.486 841.217 50.486C837.437 50.486 834.413 49.37 832.145 47.138C829.913 44.906 828.797 41.558 828.797 37.094V20.732H839.057V35.42C839.057 37.616 839.471 39.218 840.299 40.226C841.127 41.234 842.333 41.738 843.917 41.738C845.537 41.738 846.851 41.18 847.859 40.064C848.903 38.912 849.425 37.166 849.425 34.826V20.732H859.685ZM876.068 24.242C877.112 22.91 878.462 21.92 880.118 21.272C881.81 20.588 883.736 20.246 885.896 20.246V29.48C884.96 29.372 884.186 29.318 883.574 29.318C881.378 29.318 879.65 29.912 878.39 31.1C877.166 32.288 876.554 34.106 876.554 36.554V50H866.294V20.732H876.068V24.242ZM921.015 20.732V50H911.241V46.868C910.161 48.056 908.865 48.956 907.353 49.568C905.841 50.18 904.239 50.486 902.547 50.486C898.767 50.486 895.743 49.37 893.475 47.138C891.243 44.906 890.127 41.558 890.127 37.094V20.732H900.387V35.42C900.387 37.616 900.801 39.218 901.629 40.226C902.457 41.234 903.663 41.738 905.247 41.738C906.867 41.738 908.181 41.18 909.189 40.064C910.233 38.912 910.755 37.166 910.755 34.826V20.732H921.015ZM937.571 36.23C937.571 34.43 937.967 32.954 938.759 31.802C939.551 30.614 940.703 29.318 942.215 27.914C943.259 26.942 944.033 26.132 944.537 25.484C945.041 24.8 945.293 24.08 945.293 23.324C945.293 22.28 944.843 21.452 943.943 20.84C943.079 20.192 941.945 19.868 940.541 19.868C939.101 19.868 937.787 20.21 936.599 20.894C935.447 21.578 934.511 22.532 933.791 23.756L925.745 19.436C927.221 16.916 929.309 14.954 932.009 13.55C934.709 12.146 937.967 11.444 941.783 11.444C946.067 11.444 949.505 12.344 952.097 14.144C954.725 15.908 956.039 18.392 956.039 21.596C956.039 23.072 955.787 24.386 955.283 25.538C954.779 26.654 954.167 27.608 953.447 28.4C952.763 29.156 951.863 30.02 950.747 30.992C949.523 32.036 948.623 32.936 948.047 33.692C947.471 34.412 947.183 35.258 947.183 36.23H937.571ZM942.377 50.486C940.613 50.486 939.155 49.946 938.003 48.866C936.851 47.75 936.275 46.4 936.275 44.816C936.275 43.196 936.833 41.864 937.949 40.82C939.101 39.776 940.577 39.254 942.377 39.254C944.177 39.254 945.653 39.776 946.805 40.82C947.957 41.864 948.533 43.196 948.533 44.816C948.533 46.4 947.957 47.75 946.805 48.866C945.653 49.946 944.177 50.486 942.377 50.486Z" fill="#502772"/>
<path d="M789.293 50L781.463 38.282L773.741 50H761.537L775.307 30.884L762.131 12.2H774.173L781.733 23.108L789.185 12.2H800.741L787.565 30.452L801.605 50H789.293Z" fill="#01E1BF"/>
</svg>
